<svg width="1440" height="60" viewBox="0 0 1440 60" fill="none" xmlns="http://www.w3.org/2000/svg">
<g clip-path="url(#clip0_15664_223177)">
<rect width="1440" height="60" fill="#BED600"/>

<path d="M1147.12 61.8385C1115.38 53.8837 1092.3 48.0773 1090.86 47.6736C1088.39 46.8748 1086.08 45.6643 1084.01 44.0934C1080.52 41.4289 1077.89 37.7972 1076.44 33.6488C1074.99 29.5005 1074.79 25.0179 1075.86 20.7574C1076.94 16.4969 1079.24 12.6458 1082.49 9.68184C1085.73 6.71792 1089.77 4.77161 1094.11 4.08434L1094.69 3.94757C1099.7 2.63798 1121.2 6.19718 1195.05 30.6918C1205.02 33.9892 1206.03 34.2863 1207.03 34.4472C1212.1 35.1479 1217.25 34.1524 1221.69 31.616C1226.13 29.0796 1229.61 25.145 1231.58 20.426C1233.55 15.707 1233.9 10.4689 1232.58 5.52883C1231.26 0.588779 1228.34 -3.77542 1224.28 -6.88301C1221.58 -8.94658 1065.31 -84.3655 1015.7 -108.305" stroke="#0D2026" stroke-width="0.69" stroke-miterlimit="10"/>
<path d="M1285.76 96.5656C1247.55 86.9939 1208.48 77.3801 1168.8 67.4413" stroke="#0D2026" stroke-width="0.69" stroke-miterlimit="10"/>
<path d="M1144.01 73.5847C1108.7 64.7249 1088.14 59.5444 1087.21 59.2498C1079.8 56.9055 1073.4 52.1359 1069.03 45.7095C1064.67 39.2832 1062.6 31.5745 1063.15 23.8255C1063.7 16.0765 1066.84 8.73852 1072.07 2.99401C1077.3 -2.7505 1084.31 -6.56696 1091.97 -7.84044C1102.58 -10.3021 1133.68 -2.42452 1198.88 19.1717C1203.48 20.7252 1207.81 22.1441 1208.98 22.4793C1211.37 22.7516 1213.79 22.2303 1215.87 20.9955C1217.94 19.7606 1219.55 17.8802 1220.45 15.6423C1221.35 13.4044 1221.5 10.9325 1220.86 8.6053C1220.22 6.27807 1218.84 4.22387 1216.93 2.75736C1213.68 0.61571 1049.34 -78.6236 1008.2 -98.4743" stroke="#0D2026" stroke-width="0.69" stroke-miterlimit="10"/>
<path d="M1165.7 79.1767C1198.72 87.4399 1231.8 95.6081 1283 108.447" stroke="#0D2026" stroke-width="0.69" stroke-miterlimit="10"/>
<path d="M1278.03 58.9724L1272.3 54.5998" stroke="#0D2026" stroke-width="0.69" stroke-miterlimit="10"/>
<path d="M1277.34 53.9204L1272.97 59.6501" stroke="#0D2026" stroke-width="0.69" stroke-miterlimit="10"/>
<path d="M1266.89 50.4735L1261.16 46.101" stroke="#0D2026" stroke-width="0.69" stroke-miterlimit="10"/>
<path d="M1266.21 45.4216L1261.84 51.1513" stroke="#0D2026" stroke-width="0.69" stroke-miterlimit="10"/>
<path d="M1255.1 41.476L1249.37 37.1034" stroke="#0D2026" stroke-width="0.69" stroke-miterlimit="10"/>
<path d="M1254.42 36.4258L1250.05 42.1555" stroke="#0D2026" stroke-width="0.69" stroke-miterlimit="10"/>
<path d="M1392.57 33.5486L1386.84 29.1761" stroke="#0D2026" stroke-width="0.69" stroke-miterlimit="10"/>
<path d="M1391.89 28.4966L1387.52 34.2264" stroke="#0D2026" stroke-width="0.69" stroke-miterlimit="10"/>
<path d="M1405.13 29.467L1403.77 19.3518" stroke="#0D2026" stroke-width="0.69" stroke-miterlimit="10"/>
<path d="M1409.51 23.7299L1399.39 25.0889" stroke="#0D2026" stroke-width="0.69" stroke-miterlimit="10"/>
<path d="M1336.49 54.1945L1362.72 19.8161L1393.08 15.745L1398.63 19.9837" stroke="#0D2026" stroke-width="0.69" stroke-miterlimit="10"/>
<path d="M1400.83 17.1041L1396.45 22.8412" stroke="#0D2026" stroke-width="0.69" stroke-miterlimit="10"/>
<path d="M1325.9 73.3642L1339.04 56.1458L1333.31 51.7732L1320.17 68.9916L1325.9 73.3642Z" stroke="#0D2026" stroke-width="0.69" stroke-miterlimit="10"/>
<path d="M292.478 40.127C325.093 42.822 348.811 44.8039 350.295 44.9687C352.859 45.3564 355.338 46.1752 357.629 47.3903C361.509 49.4521 364.699 52.6078 366.802 56.4659C368.905 60.324 369.83 64.7146 369.461 69.0932C369.091 73.4718 367.445 77.6457 364.725 81.097C362.005 84.5483 358.332 87.1252 354.161 88.508L353.612 88.7369C348.879 90.8429 327.087 90.8217 250.243 78.6421C239.867 77.0077 238.821 76.8786 237.81 76.882C232.698 77.0131 227.773 78.8323 223.804 82.0559C219.835 85.2795 217.044 89.7262 215.867 94.7024C214.69 99.6785 215.193 104.904 217.298 109.564C219.403 114.225 222.991 118.057 227.502 120.464C230.505 122.061 396.938 171.108 449.782 186.674" stroke="#0D2026" stroke-width="0.69" stroke-miterlimit="10"/>
<path d="M150.036 28.3712C189.297 31.6115 229.411 34.7539 270.178 38.1184" stroke="#0D2026" stroke-width="0.69" stroke-miterlimit="10"/>
<path d="M-217.893 -317.487C-189.446 -300.277 156.961 -85.4 159.111 -84.0792C170.891 -76.0966 174.615 -64.3807 168.817 -53.4797C167.39 -50.7709 165.42 -48.3857 163.029 -46.4735C160.637 -44.5614 157.877 -43.1633 154.921 -42.3668C149.545 -40.8733 89.8403 -28.8716 67.156 -24.3378C61.6925 -23.404 56.7451 -20.5415 53.2125 -16.2704C49.6798 -11.9993 47.7963 -6.60279 47.9039 -1.0611C48.0116 4.4806 50.1032 9.79989 53.7991 13.9306C57.4949 18.0613 62.5497 20.7295 68.0454 21.4504C69.0168 21.5818 57.2136 20.5942 123.668 26.0929" stroke="#0D2026" stroke-width="0.69" stroke-miterlimit="10"/>
<path d="M293.638 28.0318C329.919 31.0409 351.05 32.8139 352.017 32.9534C359.706 34.0641 366.797 37.7311 372.148 43.3634C377.498 48.9957 380.796 56.2654 381.511 64.001C382.226 71.7366 380.316 79.4876 376.088 86.005C371.86 92.5224 365.561 97.4266 358.206 99.9275C348.137 104.079 316.172 101.355 248.331 90.6316C243.543 89.8451 239.041 89.1479 237.835 89.0066C235.426 89.1272 233.122 90.0345 231.277 91.5896C229.432 93.1447 228.148 95.2617 227.621 97.6163C227.094 99.9709 227.354 102.433 228.36 104.626C229.367 106.819 231.064 108.622 233.193 109.758C236.744 111.344 411.772 162.848 455.585 175.757" stroke="#0D2026" stroke-width="0.69" stroke-miterlimit="10"/>
<path d="M271.327 26.0362C237.41 23.2427 203.437 20.5549 150.838 16.1981" stroke="#0D2026" stroke-width="0.69" stroke-miterlimit="10"/>
<path d="M-211.153 -327.583C-181.97 -309.898 165.098 -94.6384 165.572 -94.3551L165.808 -94.2299C182.724 -82.8281 188.256 -64.1533 179.553 -47.7896C177.33 -43.6347 174.287 -39.9744 170.608 -37.0306C166.928 -34.0867 162.69 -31.9206 158.148 -30.6636C151.257 -28.768 72.7923 -13.0922 69.457 -12.4398L69.25 -12.3833C66.6453 -11.9454 64.2842 -10.5876 62.5957 -8.55655C60.9073 -6.52555 60.0035 -3.95617 60.0487 -1.31536C60.0938 1.32545 61.085 3.86242 62.8419 5.83451C64.5988 7.80659 67.005 9.08289 69.6231 9.43147C71.3787 9.61542 75.9205 9.88581 125.121 13.9557" stroke="#0D2026" stroke-width="0.69" stroke-miterlimit="10"/>
<path d="M114.196 57.782L104.026 76.9054L110.39 80.2896L120.56 61.1663L114.196 57.782Z" stroke="#0D2026" stroke-width="0.69" stroke-miterlimit="10"/>
<path d="M117.379 59.4747L130.67 34.4828" stroke="#0D2026" stroke-width="0.69" stroke-miterlimit="10"/>
<path d="M124.652 14.7463C125.992 12.2275 128.048 10.1625 130.561 8.81233C133.074 7.46221 135.932 6.88766 138.771 7.16132C141.611 7.43497 144.306 8.54454 146.515 10.3497C148.724 12.1549 150.348 14.5746 151.182 17.3029C152.016 20.0312 152.022 22.9455 151.2 25.6772C150.377 28.409 148.763 30.8355 146.562 32.65C144.36 34.4644 141.67 35.5854 138.832 35.871C135.993 36.1566 133.134 35.594 130.615 34.2545C128.941 33.3669 127.458 32.1577 126.252 30.6963C125.046 29.2348 124.14 27.5497 123.586 25.7375C123.032 23.9254 122.841 22.0218 123.024 20.1357C123.207 18.2497 123.76 16.4182 124.652 14.7463Z" stroke="#0D2026" stroke-width="0.69" stroke-miterlimit="10"/>
<path d="M126.639 15.8029C127.768 13.6758 129.503 11.9315 131.624 10.7907C133.744 9.64979 136.156 9.16364 138.553 9.39373C140.95 9.62382 143.225 10.5598 145.09 12.0833C146.955 13.6067 148.326 15.6492 149.03 17.9522C149.734 20.2552 149.739 22.7152 149.045 25.021C148.35 27.3268 146.987 29.3748 145.128 30.9057C143.269 32.4366 140.998 33.3818 138.602 33.6215C136.205 33.8612 133.792 33.3848 131.667 32.2524C128.819 30.7378 126.689 28.1538 125.746 25.0689C124.803 21.9841 125.124 18.6509 126.639 15.8029Z" stroke="#0D2026" stroke-width="0.69" stroke-miterlimit="10"/>
<path d="M144.434 19.8936C144.209 18.8808 143.766 17.9289 143.138 17.1032C142.509 16.2776 141.709 15.5978 140.793 15.1105C139.877 14.6233 138.866 14.3402 137.83 14.2806C136.794 14.2211 135.758 14.3865 134.792 14.7655" stroke="#0D2026" stroke-width="0.69" stroke-miterlimit="10"/>
<path d="M132.882 27.0898C131.575 26.0401 130.676 24.5665 130.34 22.9239C130.004 21.2812 130.253 19.573 131.044 18.0945C131.435 17.354 131.954 16.6889 132.578 16.1301" stroke="#0D2026" stroke-width="0.69" stroke-miterlimit="10"/>
<path d="M144.534 22.4885C144.42 23.3179 144.158 24.1204 143.763 24.8585C142.979 26.3406 141.702 27.502 140.152 28.142C138.603 28.7819 136.878 28.8602 135.277 28.3632" stroke="#0D2026" stroke-width="0.69" stroke-miterlimit="10"/>
<path d="M134.194 19.8219C134.529 19.1898 135.043 18.671 135.672 18.3313C136.301 17.9915 137.017 17.846 137.728 17.9132C138.44 17.9805 139.116 18.2573 139.67 18.7089C140.225 19.1604 140.633 19.7663 140.843 20.4497C141.052 21.1332 141.055 21.8636 140.849 22.5484C140.644 23.2332 140.24 23.8417 139.688 24.2968C139.137 24.7519 138.463 25.0331 137.752 25.1049C137.04 25.1767 136.323 25.0358 135.692 24.7001C135.273 24.4786 134.902 24.1766 134.6 23.8114C134.298 23.4462 134.07 23.025 133.931 22.5718C133.792 22.1186 133.744 21.6425 133.789 21.1706C133.834 20.6987 133.972 20.2404 134.194 19.8219Z" stroke="#0D2026" stroke-width="0.69" stroke-miterlimit="10"/>
<path d="M131.94 27.9208C132.111 27.5997 132.373 27.3365 132.694 27.1644C133.014 26.9923 133.378 26.919 133.74 26.9539C134.102 26.9888 134.446 27.1302 134.727 27.3603C135.009 27.5904 135.216 27.8989 135.322 28.2467C135.428 28.5944 135.429 28.9659 135.324 29.3141C135.219 29.6624 135.014 29.9717 134.733 30.2029C134.452 30.4342 134.11 30.5771 133.748 30.6135C133.386 30.6499 133.021 30.5782 132.7 30.4075C132.27 30.1785 131.948 29.7879 131.805 29.3215C131.663 28.8552 131.711 28.3513 131.94 27.9208Z" stroke="#0D2026" stroke-width="0.69" stroke-miterlimit="10"/>
<path d="M131.497 15.3456C131.297 15.0386 131.193 14.6786 131.199 14.3121C131.205 13.9456 131.32 13.5891 131.53 13.2886C131.74 12.9881 132.035 12.7571 132.377 12.6255C132.719 12.4938 133.092 12.4674 133.45 12.5496C133.807 12.6319 134.131 12.819 134.382 13.0871C134.632 13.3551 134.796 13.6918 134.853 14.0539C134.91 14.4159 134.858 14.7869 134.703 15.119C134.548 15.4512 134.297 15.7295 133.983 15.9181C133.575 16.1628 133.088 16.2399 132.625 16.1332C132.161 16.0264 131.757 15.7442 131.497 15.3456Z" stroke="#0D2026" stroke-width="0.69" stroke-miterlimit="10"/>
<path d="M145.789 22.9479C145.423 22.9673 145.059 22.8768 144.745 22.688C144.431 22.4993 144.18 22.2209 144.025 21.8887C143.87 21.5564 143.818 21.1855 143.876 20.8234C143.933 20.4614 144.098 20.1248 144.348 19.8569C144.598 19.5889 144.923 19.402 145.28 19.3199C145.637 19.2378 146.011 19.2644 146.353 19.3962C146.695 19.528 146.99 19.7591 147.2 20.0597C147.409 20.3604 147.525 20.7168 147.53 21.0834C147.538 21.5591 147.36 22.0191 147.036 22.3668C146.711 22.7145 146.264 22.9228 145.789 22.9479Z" stroke="#0D2026" stroke-width="0.69" stroke-miterlimit="10"/>
</g>
<defs>
<clipPath id="clip0_15664_223177">
<rect width="1440" height="60" fill="white"/>
</clipPath>
<clipPath id="clip1_15664_223177">
<rect width="16" height="16" fill="white" transform="translate(973 22.5)"/>
</clipPath>
</defs>
</svg>
