<svg width="40" height="40" viewBox="0 0 40 40" fill="none" xmlns="http://www.w3.org/2000/svg">
<g id="icon catalog">
<g id="Property 1=&#208;&#176;&#208;&#188;&#208;&#190;&#209;&#128;&#209;&#130;&#208;&#184;&#208;&#183;&#208;&#176;&#209;&#130;&#208;&#190;&#209;&#128;&#209;&#139;">
<g id="Vector">
<path d="M31.4644 32.2612C31.1123 32.2729 30.7567 32.3214 30.4075 32.2913C28.946 32.165 27.731 31.0431 27.4562 29.5962C27.4356 29.4886 27.4109 29.3815 27.3774 29.22C27.0549 29.6014 26.7621 29.9461 26.4693 30.2908C26.1042 30.7198 25.8765 30.7404 25.4478 30.3732C24.2542 29.3522 23.0566 28.3347 21.8733 27.3017C21.7275 27.1741 21.6604 26.9567 21.548 26.7879C21.5023 26.7185 21.4417 26.6482 21.3706 26.6099C20.9195 26.3613 20.5721 26.0288 20.3989 25.5286C20.3721 25.4535 20.2554 25.3666 20.1731 25.3584C18.9862 25.2407 18.3196 24.2971 18.6225 23.1403C18.7614 22.6102 18.8956 22.0787 19.0618 21.5577C19.1392 21.3149 19.0981 21.1614 18.8887 21.0282C18.7805 20.9592 18.6879 20.8638 18.5593 20.7551C18.4965 20.9686 18.4471 21.1492 18.3895 21.3275C18.1156 22.1877 17.3483 22.6431 16.5009 22.4492C15.6507 22.2563 15.0689 21.4423 15.2237 20.5817C15.3317 19.9854 15.4961 19.3951 15.6842 18.8182C15.7903 18.4921 15.739 18.2837 15.4507 18.117C15.3733 18.0726 15.3087 18.0058 15.2001 17.9181C15.1474 18.1041 15.1049 18.2633 15.0569 18.4215C14.7927 19.3033 14.0204 19.7825 13.1703 19.5927C12.2883 19.3955 11.7106 18.5726 11.8831 17.6797C12.0052 17.0438 12.1988 16.4211 12.374 15.7966C12.4216 15.6282 12.4001 15.5241 12.2604 15.4079C11.5431 14.8114 10.8401 14.1993 10.1201 13.6069C10.0301 13.5335 9.85874 13.4922 9.74794 13.5213C8.38045 13.8754 6.92949 13.2868 6.23929 12.081C5.5307 10.8442 5.75766 9.29876 6.80259 8.25124C7.74661 7.30448 9.32522 7.12056 10.518 7.81698C11.567 8.42989 12.1809 9.67644 12.0086 10.889C11.9804 11.0882 12.0267 11.2033 12.1764 11.3243C12.5553 11.6279 12.9211 11.9476 13.3231 12.2868C13.385 12.0652 13.4364 11.8724 13.4931 11.6799C13.7581 10.78 14.5393 10.2934 15.3974 10.4939C16.2737 10.6985 16.8474 11.5279 16.674 12.4181C16.5539 13.0334 16.3765 13.6399 16.1917 14.2406C16.1028 14.5303 16.1094 14.7421 16.3938 14.9008C16.4867 14.9533 16.5637 15.0344 16.6795 15.1279C16.7386 14.9156 16.7867 14.7313 16.8398 14.5494C17.1042 13.6477 17.8817 13.1594 18.7394 13.3558C19.6218 13.5571 20.1968 14.4049 20.0165 15.308C19.8976 15.903 19.7341 16.493 19.5473 17.0705C19.4467 17.38 19.4818 17.5868 19.7613 17.7525C19.8458 17.8017 19.9173 17.8734 20.0302 17.9616C20.0874 17.7615 20.1361 17.5906 20.186 17.4203C20.4569 16.5016 21.2366 16.0166 22.1097 16.2212C22.9851 16.426 23.5497 17.2828 23.3642 18.1888C23.2376 18.8032 23.062 19.4091 22.8794 20.01C22.806 20.2524 22.8428 20.4054 23.0516 20.5398C23.1778 20.6212 23.2859 20.731 23.4262 20.8491C23.7057 20.5196 23.9914 20.2078 24.2483 19.8738C24.9842 18.9177 26.264 18.9239 27.0291 20.0497C27.0885 20.1371 27.2029 20.1883 27.296 20.2501C27.4127 20.3286 27.5438 20.3884 27.6502 20.4789C28.8463 21.4979 30.0393 22.5202 31.2313 23.5427C31.6496 23.9012 31.6645 24.1362 31.3025 24.5682C31.036 24.8868 30.769 25.2045 30.5028 25.5241C30.4919 25.5374 30.4968 25.5628 30.4913 25.6002C31.3297 25.5696 32.0929 25.7852 32.7572 26.3035C34.6518 27.7785 34.4529 30.6677 32.3772 31.8771C32.3357 31.9013 32.3042 31.9418 32.2678 31.9746C32 32.0701 31.7322 32.1656 31.4653 32.2608L31.4644 32.2612ZM25.8807 29.3789C27.3706 27.6138 28.8396 25.875 30.3165 24.126C29.2737 23.2351 28.2528 22.3615 27.2249 21.483C25.7392 23.2424 24.2764 24.9748 22.7913 26.733C23.8202 27.6142 24.8335 28.4812 25.8807 29.3789ZM9.60865 12.469C10.6857 12.0973 11.2545 10.9157 10.8918 9.80514C10.5511 8.76199 9.34637 8.17848 8.27842 8.54061C7.19347 8.90777 6.60778 10.1299 6.98889 11.2276C7.35413 12.2808 8.53342 12.84 9.60772 12.4693L9.60865 12.469ZM19.0165 14.78C18.9097 14.6593 18.8382 14.5438 18.7359 14.4706C18.3597 14.2037 17.9664 14.3837 17.829 14.886C17.314 16.763 16.8023 18.6408 16.2907 20.5187C16.2722 20.5869 16.2544 20.657 16.2468 20.7265C16.2091 21.0836 16.4182 21.3767 16.756 21.4453C17.0791 21.5108 17.3126 21.3512 17.4162 20.9738C17.9358 19.0774 18.4542 17.1804 18.9666 15.2814C19.01 15.1218 19.0023 14.948 19.0178 14.7806L19.0165 14.78ZM22.3554 17.7182C22.2229 17.3789 22.0332 17.2335 21.75 17.2217C21.4638 17.21 21.302 17.3742 21.212 17.6257C21.185 17.7022 21.1673 17.7816 21.1459 17.8592C20.6684 19.61 20.1905 21.3598 19.7129 23.1106C19.6759 23.2471 19.6306 23.3834 19.6061 23.5227C19.5374 23.9013 19.7257 24.2123 20.067 24.2994C20.4074 24.3869 20.6591 24.2199 20.7713 23.8111C21.2919 21.9144 21.8093 20.0178 22.3218 18.1188C22.3622 17.9685 22.3494 17.8039 22.3554 17.7182ZM15.659 12.0062C15.5295 11.646 15.3252 11.4922 15.0325 11.4974C14.7096 11.5029 14.5597 11.7151 14.4796 12.009C13.9711 13.8868 13.456 15.7638 12.945 17.6403C12.9207 17.7274 12.9029 17.8183 12.8974 17.908C12.8764 18.2477 13.0945 18.5251 13.4221 18.5826C13.7323 18.6381 13.9655 18.4776 14.0629 18.1211C14.5854 16.2154 15.1046 14.3087 15.619 12.4007C15.6594 12.2504 15.651 12.0863 15.6583 12.0043L15.659 12.0062ZM32.8692 28.1667C32.3972 26.9312 31.1123 26.3366 29.9063 26.795C28.7077 27.2507 28.1223 28.5762 28.5858 29.7876C29.0312 30.9543 30.3781 31.5675 31.5282 31.128C32.7205 30.6724 33.3205 29.347 32.8705 28.1673L32.8692 28.1667ZM25.3312 20.274C25.2641 20.3377 25.1376 20.4371 25.0353 20.5572C24.2875 21.4361 23.5444 22.3195 22.8007 23.2011C22.3895 23.6883 21.9745 24.1737 21.5677 24.6645C21.3219 24.9622 21.3189 25.2056 21.5394 25.4518C21.8679 25.8193 22.2082 25.8128 22.5334 25.4273C23.6839 24.0664 24.833 22.7049 25.9809 21.3428C26.0398 21.2737 26.0965 21.2013 26.1416 21.1225C26.2677 20.9021 26.2328 20.6931 26.0674 20.5076C25.8915 20.3103 25.6912 20.1645 25.3322 20.2737L25.3312 20.274ZM11.5823 12.1713C11.3465 12.4445 11.1429 12.679 10.9323 12.9234C11.5308 13.4296 12.1203 13.9286 12.7368 14.4503C12.8287 14.1136 12.9151 13.8227 12.9842 13.5275C12.9991 13.4637 12.9764 13.359 12.931 13.3198C12.4907 12.9347 12.0413 12.5591 11.5826 12.1723L11.5823 12.1713ZM19.4189 20.1016C19.8112 19.2451 19.7476 18.9263 19.1423 18.6439C18.9116 19.3111 19.0038 19.7971 19.4189 20.1016ZM15.7967 15.7864C15.4316 16.769 15.4429 16.8298 16.0671 17.2474C16.4754 16.4093 16.4287 16.1585 15.7967 15.7864ZM22.4945 21.4436C22.4283 21.6887 22.376 21.8787 22.3245 22.0683C22.3409 22.0761 22.3581 22.0835 22.3745 22.0913C22.4938 21.9484 22.6135 21.8065 22.7456 21.6497C22.6617 21.5814 22.5955 21.5277 22.4948 21.4446L22.4945 21.4436Z" fill="#BED600"/>
<path d="M7.96428 10.8555C7.77059 10.3125 8.06197 9.7061 8.60309 9.52457C9.13309 9.34701 9.72789 9.63519 9.91531 10.1606C10.1087 10.7027 9.81949 11.2947 9.2689 11.4849C8.73036 11.6707 8.1554 11.3942 7.96428 10.8555Z" fill="#BED600"/>
<path d="M29.1761 29.4866C28.8737 28.6272 29.3188 27.708 30.1859 27.4008C31.0401 27.0982 31.9731 27.5467 32.2777 28.4064C32.5816 29.2642 32.1162 30.2262 31.255 30.5209C30.4053 30.8125 29.4808 30.3525 29.1761 29.4866ZM30.5431 28.3817C30.2238 28.4851 30.0536 28.8132 30.1545 29.1313C30.2588 29.4618 30.61 29.6468 30.9264 29.5381C31.2224 29.4367 31.3948 29.0765 31.2959 28.7671C31.1957 28.4539 30.8556 28.2796 30.5428 28.3807L30.5431 28.3817Z" fill="#BED600"/>
</g>
</g>
</g>
</svg>
