<svg width="24" height="24" viewBox="0 0 24 24" fill="none" xmlns="http://www.w3.org/2000/svg">
<path d="M9.76172 14.5L13.2417 8.9H14.2417L10.7617 14.5H9.76172ZM9.41772 9.196C9.66839 8.94533 9.98305 8.82 10.3617 8.82C10.7404 8.82 11.0551 8.94533 11.3057 9.196C11.5564 9.44667 11.6817 9.76133 11.6817 10.14C11.6817 10.5187 11.5564 10.8333 11.3057 11.084C11.0551 11.3347 10.7404 11.46 10.3617 11.46C9.98305 11.46 9.66839 11.3347 9.41772 11.084C9.16705 10.8333 9.04172 10.5187 9.04172 10.14C9.04172 9.76133 9.16705 9.44667 9.41772 9.196ZM9.96172 10.572C10.0684 10.684 10.2017 10.74 10.3617 10.74C10.5217 10.74 10.6551 10.684 10.7617 10.572C10.8684 10.46 10.9217 10.316 10.9217 10.14C10.9217 9.964 10.8684 9.82 10.7617 9.708C10.6551 9.596 10.5217 9.54 10.3617 9.54C10.2017 9.54 10.0684 9.596 9.96172 9.708C9.85505 9.82 9.80172 9.964 9.80172 10.14C9.80172 10.316 9.85505 10.46 9.96172 10.572ZM12.6977 14.204C12.4471 13.9533 12.3217 13.6387 12.3217 13.26C12.3217 12.8813 12.4471 12.5667 12.6977 12.316C12.9484 12.0653 13.2631 11.94 13.6417 11.94C14.0204 11.94 14.3351 12.0653 14.5857 12.316C14.8364 12.5667 14.9617 12.8813 14.9617 13.26C14.9617 13.6387 14.8364 13.9533 14.5857 14.204C14.3351 14.4547 14.0204 14.58 13.6417 14.58C13.2631 14.58 12.9484 14.4547 12.6977 14.204ZM13.2417 13.692C13.3484 13.804 13.4817 13.86 13.6417 13.86C13.8017 13.86 13.9351 13.804 14.0417 13.692C14.1484 13.58 14.2017 13.436 14.2017 13.26C14.2017 13.084 14.1484 12.94 14.0417 12.828C13.9351 12.716 13.8017 12.66 13.6417 12.66C13.4817 12.66 13.3484 12.716 13.2417 12.828C13.1351 12.94 13.0817 13.084 13.0817 13.26C13.0817 13.436 13.1351 13.58 13.2417 13.692Z" fill="#162D35"/>
</svg>
